<svg xmlns="http://www.w3.org/2000/svg" viewBox="0 0 410 404"><defs><linearGradient id="a" x1="7.828%" x2="79.873%" y1="7.652%" y2="71.684%"><stop stop-color="#41D1FF" offset="0%"/><stop stop-color="#BD34FE" offset="100%"/></linearGradient><linearGradient id="b" x1="43.376%" x2="50.316%" y1="2.242%" y2="89.03%"><stop stop-color="#FFEA83" offset="0%"/><stop stop-color="#FFDD35" offset="8.333%"/><stop stop-color="#FFA800" offset="100%"/></linearGradient></defs><path fill="url(#a)" d="M399.641 59.524 215.643 388.545c-7.896 14.25-28.589 14.096-36.288-.227L10.396 59.597c-7.4-13.683 3.254-29.827 18.513-27.642l170.63 24.092a20.41 20.41 0 0 0 5.843-.004l173.373-24.14c15.24-2.12 25.934 14.01 18.54 27.694Z"/><path fill="url(#b)" d="m286.532 6.052-95.492 14.013a10.22 10.22 0 0 0-8.63 11.549l14.897 98.63c1.538 10.182 14.073 14.698 21.517 7.502l20.31-19.702 49.365 90.042c5.04 9.183 18.61 7.452 21.21-2.742l52.039-201.81c2.64-10.243-5.846-19.66-16.28-17.95l-58.767 9.448-24.804-58.63c-3.223-7.614-11.19-11.97-19.863-10.7Z"/></svg>
